<svg width="40" height="35" viewBox="0 0 40 35" fill="none" xmlns="http://www.w3.org/2000/svg">
<path d="M31.1634 10.2081C30.9114 9.77149 30.5506 9.40766 30.1161 9.15207C29.6816 8.89648 29.1882 8.75787 28.6842 8.74976H10.0175L9.17171 5.45392C9.08625 5.13577 8.89559 4.85593 8.63078 4.65997C8.36597 4.46401 8.04262 4.36348 7.71338 4.37476H4.79671C4.40994 4.37476 4.03901 4.5284 3.76551 4.80189C3.49202 5.07538 3.33838 5.44632 3.33838 5.83309C3.33838 6.21986 3.49202 6.5908 3.76551 6.86429C4.03901 7.13778 4.40994 7.29142 4.79671 7.29142H6.60505L10.63 22.2539C10.7155 22.5721 10.9062 22.8519 11.171 23.0479C11.4358 23.2438 11.7591 23.3444 12.0884 23.3331H25.2134C25.4827 23.3323 25.7465 23.2569 25.9756 23.1153C26.2047 22.9738 26.3901 22.7715 26.5113 22.531L31.2946 12.9643C31.502 12.5298 31.5985 12.0507 31.5756 11.5697C31.5527 11.0888 31.4111 10.621 31.1634 10.2081ZM24.3092 20.4164H13.1967L10.8196 11.6664H28.6842L24.3092 20.4164Z" fill="white"/>
<path d="M11.3594 30.6243C12.5675 30.6243 13.5469 29.6449 13.5469 28.4368C13.5469 27.2286 12.5675 26.2493 11.3594 26.2493C10.1513 26.2493 9.17188 27.2286 9.17188 28.4368C9.17188 29.6449 10.1513 30.6243 11.3594 30.6243Z" fill="white"/>
<path d="M25.9424 30.6243C27.1505 30.6243 28.1299 29.6449 28.1299 28.4368C28.1299 27.2286 27.1505 26.2493 25.9424 26.2493C24.7343 26.2493 23.7549 27.2286 23.7549 28.4368C23.7549 29.6449 24.7343 30.6243 25.9424 30.6243Z" fill="white"/>
<circle cx="32.3221" cy="7.33871" r="6.83871" fill="white" stroke="#DA3A3A"/>
<path d="M30.5095 4.33903L31.0895 4.65903V5.39903H29.7795V3.12903H32.1895C32.5628 3.12903 32.8728 3.17903 33.1195 3.27903C33.3728 3.37236 33.5762 3.50236 33.7295 3.66903C33.8828 3.82903 33.9928 4.01569 34.0595 4.22903C34.1262 4.44236 34.1595 4.66903 34.1595 4.90903C34.1595 5.12903 34.1328 5.33903 34.0795 5.53903C34.0328 5.73236 33.9628 5.90569 33.8695 6.05903C33.7828 6.20569 33.6762 6.32903 33.5495 6.42903C33.4295 6.52236 33.2928 6.58236 33.1395 6.60903C33.3728 6.65569 33.5628 6.73236 33.7095 6.83903C33.8562 6.93903 33.9695 7.05569 34.0495 7.18903C34.1295 7.31569 34.1828 7.45569 34.2095 7.60903C34.2362 7.75569 34.2495 7.89903 34.2495 8.03903C34.2495 8.35903 34.1995 8.64903 34.0995 8.90903C34.0062 9.16236 33.8695 9.37903 33.6895 9.55903C33.5095 9.73903 33.2928 9.87903 33.0395 9.97903C32.7862 10.079 32.5028 10.129 32.1895 10.129H29.7795V8.90903H32.2595C32.4662 8.90903 32.6295 8.84236 32.7495 8.70903C32.8762 8.57569 32.9395 8.37236 32.9395 8.09903C32.9395 7.83236 32.8762 7.61903 32.7495 7.45903C32.6295 7.29236 32.4662 7.20903 32.2595 7.20903H30.7595V5.98903H32.2595C32.4662 5.98903 32.6295 5.90903 32.7495 5.74903C32.8762 5.58236 32.9395 5.37236 32.9395 5.11903C32.9395 4.86569 32.8762 4.67236 32.7495 4.53903C32.6295 4.40569 32.4662 4.33903 32.2595 4.33903H30.5095Z" fill="#DA3A3A"/>
</svg>
