<svg width="32" height="31" viewBox="0 0 32 31" fill="none" xmlns="http://www.w3.org/2000/svg">
<path d="M15.6606 29.0689C15.4633 29.0701 15.2676 29.0315 15.0849 28.9554C14.9021 28.8793 14.7359 28.7672 14.5958 28.6254L2.94235 16.7263C1.48058 15.22 0.660645 13.1864 0.660645 11.0673C0.660645 8.94812 1.48058 6.91455 2.94235 5.40831C4.41554 3.91023 6.41113 3.06897 8.4916 3.06897C10.5721 3.06897 12.5677 3.91023 14.0409 5.40831L15.6606 7.06012L17.2804 5.40831C18.7536 3.91023 20.7492 3.06897 22.8297 3.06897C24.9102 3.06897 26.9057 3.91023 28.3789 5.40831C29.8407 6.91455 30.6606 8.94812 30.6606 11.0673C30.6606 13.1864 29.8407 15.22 28.3789 16.7263L16.7255 28.6254C16.5854 28.7672 16.4192 28.8793 16.2364 28.9554C16.0537 29.0315 15.858 29.0701 15.6606 29.0689ZM8.4916 6.12715C7.8567 6.12422 7.22754 6.24979 6.64056 6.49657C6.05359 6.74335 5.52046 7.10645 5.07206 7.56484C4.16627 8.4934 3.6578 9.74989 3.6578 11.0596C3.6578 12.3694 4.16627 13.6259 5.07206 14.5544L15.6606 25.3677L26.2492 14.5544C27.155 13.6259 27.6635 12.3694 27.6635 11.0596C27.6635 9.74989 27.155 8.4934 26.2492 7.56484C25.3249 6.67425 24.1014 6.17808 22.8297 6.17808C21.558 6.17808 20.3345 6.67425 19.4101 7.56484L16.7255 10.3179C16.5861 10.4612 16.4202 10.575 16.2374 10.6526C16.0547 10.7303 15.8586 10.7703 15.6606 10.7703C15.4627 10.7703 15.2666 10.7303 15.0839 10.6526C14.9011 10.575 14.7352 10.4612 14.5958 10.3179L11.9111 7.56484C11.4627 7.10645 10.9296 6.74335 10.3426 6.49657C9.75567 6.24979 9.1265 6.12422 8.4916 6.12715Z" fill="white"/>
</svg>
