<svg width="37" height="31" viewBox="0 0 37 31" fill="none" xmlns="http://www.w3.org/2000/svg">
<path d="M18.0091 14.4836C19.2513 14.4836 20.4656 14.1153 21.4985 13.4251C22.5313 12.735 23.3363 11.7541 23.8117 10.6065C24.287 9.45885 24.4114 8.19602 24.1691 6.9777C23.9267 5.75938 23.3286 4.64028 22.4502 3.76192C21.5718 2.88356 20.4527 2.28539 19.2344 2.04305C18.0161 1.80071 16.7533 1.92508 15.6056 2.40045C14.458 2.87582 13.4771 3.68082 12.787 4.71366C12.0969 5.7465 11.7285 6.9608 11.7285 8.20299C11.7285 9.86871 12.3902 11.4662 13.5681 12.6441C14.7459 13.8219 16.3434 14.4836 18.0091 14.4836ZM18.0091 5.06268C18.6302 5.06268 19.2374 5.24685 19.7538 5.59191C20.2702 5.93698 20.6727 6.42743 20.9104 7.00124C21.1481 7.57506 21.2103 8.20647 21.0891 8.81563C20.9679 9.42479 20.6689 9.98434 20.2297 10.4235C19.7905 10.8627 19.2309 11.1618 18.6218 11.283C18.0126 11.4041 17.3812 11.3419 16.8074 11.1043C16.2336 10.8666 15.7431 10.4641 15.3981 9.94765C15.053 9.43123 14.8688 8.82408 14.8688 8.20299C14.8688 7.37013 15.1997 6.57137 15.7886 5.98245C16.3775 5.39353 17.1763 5.06268 18.0091 5.06268Z" fill="white"/>
<path d="M18.0092 17.6237C15.0941 17.6237 12.2985 18.7816 10.2373 20.8429C8.17605 22.9041 7.01807 25.6997 7.01807 28.6147C7.01807 29.0312 7.18349 29.4306 7.47795 29.725C7.77242 30.0195 8.17179 30.1849 8.58822 30.1849C9.00465 30.1849 9.40403 30.0195 9.69849 29.725C9.99295 29.4306 10.1584 29.0312 10.1584 28.6147C10.1584 26.5326 10.9855 24.5357 12.4578 23.0634C13.9301 21.5911 15.927 20.764 18.0092 20.764C20.0913 20.764 22.0882 21.5911 23.5605 23.0634C25.0328 24.5357 25.8599 26.5326 25.8599 28.6147C25.8599 29.0312 26.0254 29.4306 26.3198 29.725C26.6143 30.0195 27.0137 30.1849 27.4301 30.1849C27.8465 30.1849 28.2459 30.0195 28.5404 29.725C28.8348 29.4306 29.0002 29.0312 29.0002 28.6147C29.0002 25.6997 27.8423 22.9041 25.781 20.8429C23.7198 18.7816 20.9242 17.6237 18.0092 17.6237Z" fill="white"/>
</svg>
