<svg width="32" height="31" viewBox="0 0 32 31" fill="none" xmlns="http://www.w3.org/2000/svg">
<path d="M27.1723 24.9165L22.7806 20.5378C24.1976 18.7326 24.9664 16.5034 24.9635 14.2086C24.9635 12.1648 24.3575 10.167 23.2221 8.46769C22.0866 6.76838 20.4728 5.44393 18.5846 4.66183C16.6964 3.87972 14.6188 3.67509 12.6143 4.0738C10.6098 4.47251 8.76859 5.45667 7.32344 6.90181C5.8783 8.34695 4.89415 10.1882 4.49543 12.1926C4.09672 14.1971 4.30135 16.2748 5.08346 18.163C5.86556 20.0511 7.19001 21.665 8.88932 22.8004C10.5886 23.9359 12.5865 24.5419 14.6302 24.5419C16.9251 24.5448 19.1542 23.7759 20.9594 22.359L25.3381 26.7507C25.4582 26.8717 25.6011 26.9678 25.7585 27.0334C25.9159 27.099 26.0847 27.1327 26.2552 27.1327C26.4257 27.1327 26.5946 27.099 26.752 27.0334C26.9094 26.9678 27.0522 26.8717 27.1723 26.7507C27.2934 26.6306 27.3895 26.4877 27.455 26.3303C27.5206 26.1729 27.5544 26.0041 27.5544 25.8336C27.5544 25.6631 27.5206 25.4942 27.455 25.3368C27.3895 25.1794 27.2934 25.0366 27.1723 24.9165ZM6.88021 14.2086C6.88021 12.6758 7.33474 11.1774 8.18632 9.90291C9.0379 8.62843 10.2483 7.6351 11.6644 7.04852C13.0805 6.46194 14.6388 6.30846 16.1422 6.6075C17.6455 6.90653 19.0264 7.64465 20.1103 8.72851C21.1941 9.81236 21.9323 11.1933 22.2313 12.6966C22.5303 14.2 22.3769 15.7583 21.7903 17.1744C21.2037 18.5905 20.2104 19.8009 18.9359 20.6525C17.6614 21.5041 16.163 21.9586 14.6302 21.9586C12.5748 21.9586 10.6035 21.1421 9.15014 19.6887C7.69673 18.2353 6.88021 16.264 6.88021 14.2086Z" fill="white"/>
</svg>
