<svg>

	<symbol id="search2" viewBox="0 0 18 19" fill="none" xmlns="http://www.w3.org/2000/svg">
		<path d="M18.0017 16.9997L12.8477 11.8457C13.8005 10.3976 14.1821 8.6475 13.9187 6.93418C13.6552 5.22086 12.7654 3.66623 11.4216 2.57129C10.0777 1.47635 8.37537 0.918983 6.64416 1.0071C4.91294 1.09523 3.276 1.82257 2.05026 3.04831C0.82452 4.27404 0.0971789 5.91099 0.00905735 7.6422C-0.0790643 9.37342 0.478302 11.0758 1.57324 12.4196C2.66819 13.7635 4.22281 14.6533 5.93613 14.9167C7.64945 15.1802 9.39959 14.7986 10.8477 13.8457L16.0017 18.9997L18.0017 16.9997ZM2.00169 7.99973C2.00169 5.24273 4.24469 2.99973 7.00169 2.99973C9.75869 2.99973 12.0017 5.24273 12.0017 7.99973C12.0017 10.7567 9.75869 12.9997 7.00169 12.9997C4.24469 12.9997 2.00169 10.7567 2.00169 7.99973Z" fill="#BCA79B"/>
	</symbol>

	<symbol id="lk2" viewBox="0 0 16 16" xmlns="http://www.w3.org/2000/svg">
		<path d="M8 0C9.06087 0 10.0783 0.421427 10.8284 1.17157C11.5786 1.92172 12 2.93913 12 4C12 5.06087 11.5786 6.07828 10.8284 6.82843C10.0783 7.57857 9.06087 8 8 8C6.93913 8 5.92172 7.57857 5.17157 6.82843C4.42143 6.07828 4 5.06087 4 4C4 2.93913 4.42143 1.92172 5.17157 1.17157C5.92172 0.421427 6.93913 0 8 0ZM8 10C12.42 10 16 11.79 16 14V16H0V14C0 11.79 3.58 10 8 10Z"/>
	</symbol>

	<symbol id="fav" viewBox="0 0 18 16" xmlns="http://www.w3.org/2000/svg">
		<path d="M9.20747 2.45888C6.16263 -2.21357 0 0.331835 0 5.42169C0 9.24379 8.44863 15.2226 9.20747 16C9.97153 15.2226 18 9.24379 18 5.42169C18 0.370422 12.258 -2.21357 9.20747 2.45888Z" />
	</symbol>

	<symbol  id="basket2" viewBox="0 0 18 16" xmlns="http://www.w3.org/2000/svg">
		<path d="M13.9426 5.55102L10.7824 0L9.68909 0.653061L12.4826 5.55102H5.53028L8.29231 0.653061L7.19897 0L4.03884 5.55102H0L2.16778 16H15.8322L18 5.55102H13.9426ZM6.472 12.7347H5.20794V8.81633H6.472V12.7347ZM9.63214 12.7347H8.36808V8.81633H9.63214V12.7347ZM12.7923 12.7347H11.5282V8.81633H12.7923V12.7347Z"/>
	</symbol>

	<symbol id="arrow-more" viewBox="0 0 15 13" xmlns="http://www.w3.org/2000/svg">
	<path d="M0.830709 4.97112L0.807674 4.97616H10.6821L7.57795 1.86519C7.42594 1.71331 7.34256 1.50756 7.34256 1.29161C7.34256 1.07566 7.42594 0.871349 7.57795 0.719106L8.06096 0.235863C8.21284 0.0839796 8.41524 0 8.63107 0C8.84702 0 9.04953 0.0833799 9.20141 0.235263L14.5225 5.55586C14.675 5.70834 14.7584 5.91145 14.7578 6.12752C14.7584 6.34478 14.675 6.54802 14.5225 6.70026L9.20141 12.0213C9.04953 12.1731 8.84714 12.2566 8.63107 12.2566C8.41524 12.2566 8.21284 12.173 8.06096 12.0213L7.57795 11.5381C7.42594 11.3864 7.34256 11.1839 7.34256 10.968C7.34256 10.7522 7.42594 10.5603 7.57795 10.4086L10.7171 7.2802H0.819672C0.374934 7.2802 0.0012207 6.89689 0.0012207 6.4524V5.76892C0.0012207 5.32443 0.385972 4.97112 0.830709 4.97112Z"/>
	</symbol>

	<symbol id="breads-icon" viewBox="0 0 10 13" fill="none" xmlns="http://www.w3.org/2000/svg">
		<g opacity="0.25">
		<path d="M4.58823 0C4.58823 0 10.5555 6.12826 8.87964 10.055C7.20374 13.9817 1.97273 13.9817 0.296832 10.055C-1.37907 6.12826 4.58823 0 4.58823 0Z" fill="#354657"/>
		<path d="M2.82362 10.7057C-0.0838081 7.79844 2.69723 4.3331 3.58938 3.05859L3.20631 4.20565C0.91219 9.94095 4.96488 12.8467 2.82362 10.7057Z" fill="white"/>
		</g>
	</symbol>

	<symbol id="burger-menu-cancel" viewBox="0 0 20 20" fill="none" xmlns="http://www.w3.org/2000/svg">
	<path fill-rule="evenodd" clip-rule="evenodd" d="M20 2L18 0L10 8L2 0L0 2L8 10L0 18L2 20L10 12L18 20L20 18L12 10L20 2Z" fill="#BCA79B"/>
	</symbol>

	<symbol id="clear" viewBox="0 0 505.6 505.6" xmlns="http://www.w3.org/2000/svg">
		<g>
			<path style="fill-rule:evenodd;clip-rule:evenodd;" 
			d="M182.4,51.2H99.2C88.596,51.2,80,59.796,80,70.4s8.596,19.2,19.2,19.2   
			h307.201c10.604,0,19.2-8.596,19.2-19.2s-8.596-19.2-19.2-19.2H323.2v-6.4c0-24.742-20.058-44.8-44.8-44.8h-51.2   
			c-24.742,0-44.8,20.058-44.8,44.8V51.2z M220.8,44.8c0-3.535,2.865-6.4,6.4-6.4h51.2c3.535,0,6.4,2.865,6.4,6.4v6.4h-64V44.8z"/>
			<path d="M195.151,248.232c-0.756-10.577-9.942-18.539-20.519-17.783c-10.577,0.755-18.539,9.942-17.783,20.519l12.8,127.999   
			c0.755,10.578,9.942,18.54,20.519,17.784c10.577-0.755,18.539-9.943,17.783-20.518L195.151,248.232z"/>
			<path d="M252.8,230.4c10.604,0,19.2,8.596,19.2,19.2v128c0,10.604-8.596,19.2-19.2,19.2s-19.2-8.596-19.2-19.2v-128   
			C233.6,238.996,242.196,230.4,252.8,230.4z"/>
			<path d="M348.752,250.968c0.755-10.577-7.206-19.764-17.784-20.519c-10.577-0.755-19.764,7.206-20.519,17.783l-12.8,128.001   
			c-0.755,10.575,7.206,19.763,17.783,20.518c10.577,0.755,19.762-7.206,20.52-17.784L348.752,250.968z"/>
			<path style="fill-rule:evenodd;clip-rule:evenodd;" 
			d="M75.42,148.903c-0.985-14.776,10.735-27.303,25.543-27.303h303.674   
			c14.807,0,26.527,12.527,25.544,27.303l-22.188,332.799c-0.896,13.448-12.065,23.898-25.544,23.898h-259.3   
			c-13.477,0-24.647-10.45-25.543-23.898L75.42,148.903z M135.125,467.2L114.645,160h276.309l-20.48,307.2H135.125z"/>
		</g>
	</symbol>

	<symbol id="checkmark-order" viewBox="0 0 32 23" xmlns="http://www.w3.org/2000/svg">
		<path d="M30.167 2L10.8022 21.3648L2 12.5626" stroke-width="3" stroke-linecap="round" stroke-linejoin="round"/>
	</symbol>

	<symbol id="menu-arrow" viewBox="0 0 18 10" fill="none" xmlns="http://www.w3.org/2000/svg">
		<path d="M1 0.5L9 8.5L17 0.5"/>
	</symbol>

	<symbol id="twitter" viewBox="0 0 512 512" xmlns="http://www.w3.org/2000/svg">
		<path d="M512,97.248c-19.04,8.352-39.328,13.888-60.48,16.576c21.76-12.992,38.368-33.408,46.176-58.016
			c-20.288,12.096-42.688,20.64-66.56,25.408C411.872,60.704,384.416,48,354.464,48c-58.112,0-104.896,47.168-104.896,104.992
			c0,8.32,0.704,16.32,2.432,23.936c-87.264-4.256-164.48-46.08-216.352-109.792c-9.056,15.712-14.368,33.696-14.368,53.056
			c0,36.352,18.72,68.576,46.624,87.232c-16.864-0.32-33.408-5.216-47.424-12.928c0,0.32,0,0.736,0,1.152
			c0,51.008,36.384,93.376,84.096,103.136c-8.544,2.336-17.856,3.456-27.52,3.456c-6.72,0-13.504-0.384-19.872-1.792
			c13.6,41.568,52.192,72.128,98.08,73.12c-35.712,27.936-81.056,44.768-130.144,44.768c-8.608,0-16.864-0.384-25.12-1.44
			C46.496,446.88,101.6,464,161.024,464c193.152,0,298.752-160,298.752-298.688c0-4.64-0.16-9.12-0.384-13.568
			C480.224,136.96,497.728,118.496,512,97.248z"/>
	</symbol>

	<symbol id="telegram" viewBox="0 0 300 300" xmlns="http://www.w3.org/2000/svg">
	    <path d="M5.299,144.645l69.126,25.8l26.756,86.047c1.712,5.511,8.451,7.548,12.924,3.891l38.532-31.412
		    c4.039-3.291,9.792-3.455,14.013-0.391l69.498,50.457c4.785,3.478,11.564,0.856,12.764-4.926L299.823,29.22
		    c1.31-6.316-4.896-11.585-10.91-9.259L5.218,129.402C-1.783,132.102-1.722,142.014,5.299,144.645z M96.869,156.711l135.098-83.207
		    c2.428-1.491,4.926,1.792,2.841,3.726L123.313,180.87c-3.919,3.648-6.447,8.53-7.163,13.829l-3.798,28.146
		    c-0.503,3.758-5.782,4.131-6.819,0.494l-14.607-51.325C89.253,166.16,91.691,159.907,96.869,156.711z"/>
	</symbol>

	<symbol id="whatsapp" viewBox="0 0 512 512" xmlns="http://www.w3.org/2000/svg">
		<path d="M256.064,0h-0.128C114.784,0,0,114.816,0,256c0,56,18.048,107.904,48.736,150.048l-31.904,95.104l98.4-31.456
			C155.712,496.512,204,512,256.064,512C397.216,512,512,397.152,512,256S397.216,0,256.064,0z M405.024,361.504
			c-6.176,17.44-30.688,31.904-50.24,36.128c-13.376,2.848-30.848,5.12-89.664-19.264C189.888,347.2,141.44,270.752,137.664,265.792
			c-3.616-4.96-30.4-40.48-30.4-77.216s18.656-54.624,26.176-62.304c6.176-6.304,16.384-9.184,26.176-9.184
			c3.168,0,6.016,0.16,8.576,0.288c7.52,0.32,11.296,0.768,16.256,12.64c6.176,14.88,21.216,51.616,23.008,55.392
			c1.824,3.776,3.648,8.896,1.088,13.856c-2.4,5.12-4.512,7.392-8.288,11.744c-3.776,4.352-7.36,7.68-11.136,12.352
			c-3.456,4.064-7.36,8.416-3.008,15.936c4.352,7.36,19.392,31.904,41.536,51.616c28.576,25.44,51.744,33.568,60.032,37.024
			c6.176,2.56,13.536,1.952,18.048-2.848c5.728-6.176,12.8-16.416,20-26.496c5.12-7.232,11.584-8.128,18.368-5.568
			c6.912,2.4,43.488,20.48,51.008,24.224c7.52,3.776,12.48,5.568,14.304,8.736C411.2,329.152,411.2,344.032,405.024,361.504z"/>
	</symbol>

	<symbol id="vk" viewBox="0 0 532.337 532.337" xmlns="http://www.w3.org/2000/svg">
		<path d="M471.998,241.286c7.57-9.786,13.58-17.638,18.018-23.562c31.965-42.498,45.82-69.646,41.574-81.482l-1.666-2.772
			c-1.107-1.665-3.977-3.194-8.592-4.578c-4.621-1.383-10.533-1.604-17.736-0.691l-79.822,0.563
			c-1.848-0.184-3.697-0.141-5.545,0.128c-1.848,0.281-3.047,0.563-3.605,0.832c-0.557,0.282-1.016,0.508-1.383,0.692l-1.107,0.832
			c-0.924,0.551-1.939,1.524-3.047,2.914c-1.109,1.389-2.039,2.999-2.773,4.853c-8.684,22.356-18.568,43.146-29.656,62.363
			c-6.838,11.457-13.123,21.396-18.844,29.792c-5.729,8.415-10.533,14.603-14.414,18.568c-3.879,3.972-7.393,7.166-10.531,9.56
			c-3.146,2.411-5.545,3.421-7.203,3.054c-1.666-0.367-3.238-0.734-4.713-1.114c-2.588-1.658-4.67-3.917-6.236-6.787
			c-1.572-2.857-2.631-6.463-3.189-10.808c-0.551-4.339-0.881-8.084-0.967-11.23c-0.098-3.139-0.049-7.57,0.141-13.305
			c0.184-5.729,0.275-9.602,0.275-11.64c0-7.014,0.141-14.639,0.418-22.864c0.275-8.219,0.508-14.737,0.691-19.542
			c0.184-4.798,0.275-9.884,0.275-15.245c0-5.349-0.324-9.56-0.975-12.613c-0.648-3.042-1.621-5.998-2.906-8.868
			c-1.297-2.858-3.189-5.08-5.686-6.646c-2.496-1.573-5.588-2.815-9.283-3.746c-9.799-2.222-22.271-3.409-37.418-3.604
			c-34.37-0.355-56.451,1.86-66.243,6.658c-3.88,2.038-7.393,4.804-10.532,8.317c-3.329,4.07-3.788,6.291-1.383,6.646
			c11.089,1.665,18.936,5.643,23.556,11.922l1.665,3.323c1.291,2.411,2.583,6.659,3.88,12.754c1.292,6.096,2.124,12.84,2.497,20.233
			c0.924,13.488,0.924,25.031,0,34.646c-0.924,9.614-1.799,17.093-2.631,22.442c-0.833,5.361-2.081,9.7-3.74,13.023
			c-1.665,3.335-2.772,5.367-3.329,6.107c-0.557,0.734-1.016,1.199-1.383,1.384c-2.405,0.918-4.896,1.383-7.484,1.383
			c-2.589,0-5.729-1.298-9.425-3.887c-3.697-2.576-7.534-6.138-11.5-10.667c-3.978-4.522-8.452-10.856-13.446-18.99
			c-4.988-8.121-10.166-17.736-15.521-28.819l-4.431-8.042c-2.772-5.165-6.561-12.699-11.365-22.583s-9.058-19.443-12.748-28.69
			c-1.481-3.874-3.697-6.83-6.652-8.868l-1.383-0.832c-0.924-0.735-2.405-1.524-4.437-2.351c-2.038-0.832-4.155-1.432-6.377-1.805
			l-75.943,0.551c-7.76,0-13.023,1.763-15.795,5.275l-1.108,1.659C0.275,136.059,0,137.54,0,139.566
			c0,2.038,0.557,4.529,1.665,7.479c11.089,26.059,23.146,51.188,36.169,75.386c13.03,24.211,24.346,43.709,33.954,58.489
			c9.608,14.792,19.4,28.733,29.382,41.854c9.982,13.121,16.585,21.523,19.816,25.214c3.231,3.703,5.771,6.476,7.62,8.317
			l6.928,6.658c4.431,4.432,10.949,9.743,19.542,15.937c8.592,6.193,18.103,12.289,28.55,18.287
			c10.435,6.01,22.589,10.899,36.444,14.694c13.856,3.794,27.344,5.317,40.465,4.571h31.874c6.469-0.551,11.363-2.576,14.688-6.096
			l1.107-1.383c0.734-1.102,1.432-2.815,2.08-5.123c0.643-2.307,0.975-4.853,0.975-7.619c-0.191-7.943,0.416-15.116,1.799-21.481
			c1.383-6.377,2.955-11.175,4.713-14.418c1.756-3.226,3.738-5.955,5.959-8.177c2.217-2.222,3.783-3.55,4.713-4.015
			c0.924-0.453,1.666-0.777,2.217-0.973c4.43-1.476,9.65-0.043,15.66,4.296c6.004,4.352,11.641,9.7,16.91,16.077
			c5.262,6.377,11.59,13.531,18.984,21.481c7.387,7.943,13.855,13.855,19.4,17.735l5.545,3.336
			c3.695,2.209,8.494,4.241,14.412,6.096c5.912,1.842,11.09,2.307,15.52,1.383l70.955-1.114c7.02,0,12.473-1.15,16.354-3.464
			c3.879-2.295,6.188-4.853,6.928-7.619c0.734-2.772,0.783-5.899,0.141-9.419c-0.648-3.507-1.297-5.955-1.939-7.338
			c-0.648-1.383-1.25-2.546-1.807-3.464c-9.24-16.628-26.885-37.051-52.938-61.255l-0.557-0.551l-0.275-0.281l-0.275-0.27H473.4
			c-11.83-11.273-19.309-18.85-22.449-22.736c-5.727-7.38-7.025-14.865-3.879-22.441
			C449.275,271.874,457.586,259.769,471.998,241.286z"/>
	</symbol>

	<symbol id="youtube" viewBox="-21 -117 682.66672 682" xmlns="http://www.w3.org/2000/svg">
		<path d="m626.8125 
			64.035156c-7.375-27.417968-28.992188-49.03125-56.40625-56.414062-50.082031-13.703125-250.414062-13.703125-250.414062-13.703125s-200.324219 
			0-250.40625 13.183593c-26.886719 7.375-49.03125 29.519532-56.40625 56.933594-13.179688 50.078125-13.179688 
			153.933594-13.179688 153.933594s0 104.378906 13.179688 153.933594c7.382812 27.414062 28.992187 49.027344 
			56.410156 56.410156 50.605468 13.707031 250.410156 13.707031 250.410156 13.707031s200.324219 0 
			250.40625-13.183593c27.417969-7.378907 49.03125-28.992188 56.414062-56.40625 13.175782-50.082032 
			13.175782-153.933594 13.175782-153.933594s.527344-104.382813-13.183594-154.460938zm-370.601562 
			249.878906v-191.890624l166.585937 95.945312zm0 0"/>
	</symbol>

	<symbol id="tiktok" viewBox="0 0 512 512" xmlns="http://www.w3.org/2000/svg">
		<path d="m480.32 
			128.39c-29.22 0-56.18-9.68-77.83-26.01-24.83-18.72-42.67-46.18-48.97-77.83-1.56-7.82-2.4-15.89-2.48-24.16h-83.47v228.08l-.1 
			124.93c0 33.4-21.75 61.72-51.9 71.68-8.75 2.89-18.2 4.26-28.04 
			3.72-12.56-.69-24.33-4.48-34.56-10.6-21.77-13.02-36.53-36.64-36.93-63.66-.63-42.23 33.51-76.66 75.71-76.66 
			8.33 0 16.33 1.36 23.82 3.83v-62.34-22.41c-7.9-1.17-15.94-1.78-24.07-1.78-46.19 0-89.39 19.2-120.27 53.79-23.34 
			26.14-37.34 59.49-39.5 94.46-2.83 45.94 13.98 89.61 46.58 121.83 4.79 4.73 9.82 9.12 15.08 13.17 27.95 21.51 62.12 
			33.17 98.11 33.17 8.13 0 16.17-.6 24.07-1.77 33.62-4.98 64.64-20.37 89.12-44.57 30.08-29.73 46.7-69.2 
			46.88-111.21l-.43-186.56c14.35 11.07 30.04 20.23 46.88 27.34 26.19 11.05 53.96 16.65 82.54 
			16.64v-60.61-22.49c.02.02-.22.02-.24.02z"/>
	</symbol>

  <symbol id="callback" viewBox="0 0 32 32" xmlns="http://www.w3.org/2000/svg">
        <path d="m22 16a6.006 6.006 0 0 1 -6-6 1 1 0 0 1 2 0 4 4 0 0 0 4.67 3.944 1 1 0 0 1 .538-1.922l2.54.54a1 1 0 0 1 
		.495 1.689 6 6 0 0 1 -4.243 1.749z"/>
		<path d="m27 11a1 1 0 0 1 -1-1 4 4 0 0 0 -4.67-3.944 1 1 0 0 1 -.538 1.922l-2.54-.54a1 1 0 0 1 -.495-1.689 6.006 
		6.006 0 0 1 10.243 4.251 1 1 0 0 1 -1 1z"/>
		<path d="m28.5 22.271-5.4-3.088a1 1 0 0 0 -1.025.019l-2.875 1.787a27.886 
		27.886 0 0 1 -4.508-3.682 27.892 27.892 0 0 1 -3.681-4.507l1.789-2.871a1 1 0 0 0 .017-1.029l-3.087-5.4a1 1 0 0 0 
		-1.33-.391l-4.862 2.515a1 1 0 0 0 -.521 1.088 28.5 28.5 0 0 0 7.7 14.576 28.5 28.5 0 0 0 14.576 7.7 1 1 0 0 0 
		1.088-.521l2.51-4.867a1 1 0 0 0 -.391-1.329z"/>
  </symbol>

	<symbol id="call" viewBox="0 0 32 32" xmlns="http://www.w3.org/2000/svg">
		<path d="m29.393 23.36c-.874-.733-6-3.979-6.852-3.83-.4.071-.706.412-1.525 1.389a11.687 11.687 0 0 1 
		    -1.244 1.347 10.757 10.757 0 0 1 -2.374-.88 14.7 14.7 0 0 1 -6.784-6.786 10.757 10.757 0 0 1 
			-.88-2.374 11.687 11.687 0 0 1 1.347-1.244c.976-.819 1.318-1.123 
			1.389-1.525.149-.854-3.1-5.978-3.83-6.852-.306-.362-.584-.605-.94-.605-1.032 0-5.7 5.772-5.7 6.52 0 
			.061.1 6.07 7.689 13.791 7.721 7.589 13.73 7.689 13.791 7.689.748 0 6.52-4.668 6.52-5.7 0-.356-.243-.634-.607-.94z"/>
		<path d="m23 15h2a8.009 8.009 0 0 0 -8-8v2a6.006 6.006 0 0 1 6 6z"/>
		<path d="m28 15h2a13.015 13.015 0 0 0 -13-13v2a11.013 11.013 0 0 1 11 11z"/>
	</symbol>

	<symbol id="attention" viewBox="0 0 48 48" xmlns="http://www.w3.org/2000/svg">
		<g>
			<circle cx="24" cy="43.489" r="4.324"/>
			<path d="M19.679.188h8.639v32.494h-8.639z"/>
		</g>
	</symbol>

	<symbol id="basket" viewBox="0 0 18 16" xmlns="http://www.w3.org/2000/svg">
		<path d="M6.98118 16C6.44982 16 5.94022 15.7893 5.5645 15.4142C5.18877 15.0391 4.97768 14.5304 4.97768 
		14C4.97768 13.4696 5.18877 12.9609 5.5645 12.5858C5.94022 12.2107 6.44982 12 6.98118 12C7.51254 12 8.02214 12.2107 
		8.39787 12.5858C8.7736 12.9609 8.98468 13.4696 8.98468 14C8.98468 14.5304 8.7736 15.0391 8.39787 15.4142C8.02214 
		15.7893 7.51254 16 6.98118 16ZM13.9934 16C13.4621 16 12.9525 15.7893 12.5767 15.4142C12.201 15.0391 11.9899 14.5304 
		11.9899 14C11.9899 13.4696 12.201 12.9609 12.5767 12.5858C12.9525 12.2107 13.4621 12 13.9934 12C14.5248 12 15.0344 
		12.2107 15.4101 12.5858C15.7859 12.9609 15.9969 13.4696 15.9969 14C15.9969 14.5304 15.7859 15.0391 15.4101 
		15.4142C15.0344 15.7893 14.5248 16 13.9934 16ZM0.932617 1.923C0.682542 1.91495 0.445407 1.81012 0.27136 
		1.63068C0.0973129 1.45125 0 1.21127 0 0.9615C0 0.711732 0.0973129 0.471755 0.27136 0.292318C0.445407 
		0.11288 0.682542 0.00805181 0.932617 0L2.08563 0C2.98921 0 3.77057 0.626 3.96692 1.506L5.22211 7.148C5.41845 8.028 
		6.19982 8.654 7.1034 8.654H14.6285L16.0731 2.884H6.71171C6.46399 2.87272 6.23016 2.76654 6.05886 2.58755C5.88755 
		2.40857 5.79196 2.17055 5.79196 1.923C5.79196 1.67545 5.88755 1.43743 6.05886 1.25845C6.23016 1.07946 6.46399 
		0.973284 6.71171 0.962H16.0731C16.3659 0.961914 16.6549 1.02848 16.9181 1.15663C17.1813 1.28479 17.4118 1.47116 
		17.592 1.70158C17.7722 1.93201 17.8975 2.20041 17.9582 2.4864C18.0189 2.77238 18.0134 3.06842 17.9423 3.352L16.4978 
		9.12C16.3937 9.5362 16.1531 9.90568 15.8144 10.1697C15.4757 10.4337 15.0583 10.5771 14.6285 10.577H7.1034C6.22666 
		10.5771 5.3761 10.2787 4.6922 9.7311C4.00829 9.18348 3.53195 8.41938 3.34183 7.565L2.08563 1.923H0.932617Z" />
	</symbol>

	<symbol id="lk" viewBox="0 0 15 15" xmlns="http://www.w3.org/2000/svg">
		<path d="M14.8893 13.0724C13.9243 11.4086 12.4262 10.1189 10.6373 9.41216C11.5153 8.75368 12.1638 7.83564 
		12.491 6.78809C12.8183 5.74054 12.8076 4.61658 12.4606 3.57543C12.1135 2.53428 11.4477 1.62871 10.5574 
		0.987011C9.66704 0.345308 8.59739 0 7.49992 0C6.40245 0 5.33279 0.345308 4.44248 0.987011C3.55216 1.62871 
		2.88632 2.53428 2.53927 3.57543C2.19222 4.61658 2.18156 5.74054 2.50879 6.78809C2.83602 7.83564 3.48455 
		8.75368 4.36253 9.41216C2.57365 10.1189 1.07553 11.4086 0.110544 13.0724C0.00105936 13.2622 -0.0285541 
		13.4877 0.0282189 13.6993C0.0849918 13.9109 0.223501 14.0913 0.413275 14.2008C0.603049 14.3103 0.828543 
		14.3399 1.04015 14.2831C1.25176 14.2264 1.43215 14.0879 1.54163 13.8981C2.14552 12.8522 3.01406 11.9838 
		4.05995 11.38C5.10584 10.7761 6.29224 10.4583 7.49992 10.4583C8.70759 10.4583 9.89399 10.7761 10.9399 
		11.38C11.9858 11.9838 12.8543 12.8522 13.4582 13.8981C13.5312 14.0232 13.6357 14.1271 13.7612 14.1995C13.8867 
		14.2719 14.0289 14.3103 14.1737 14.3109C14.3188 14.312 14.4614 14.274 14.5866 14.2008C14.6806 14.1466 14.763 
		14.0745 14.8291 13.9884C14.8952 13.9024 14.9437 13.8042 14.9718 13.6994C14.9999 13.5946 15.0071 13.4853 14.9929 
		13.3777C14.9788 13.2701 14.9436 13.1664 14.8893 13.0724ZM3.92219 5.22898C3.92219 4.52137 4.13202 3.82966 4.52515 
		3.2413C4.91827 2.65295 5.47704 2.19438 6.13078 1.92359C6.78453 1.65281 7.50389 1.58195 8.1979 1.72C8.89191 1.85805 
		9.5294 2.19879 10.0297 2.69915C10.5301 3.1995 10.8708 3.83699 11.0089 4.531C11.1469 5.22501 11.0761 5.94437 10.8053 
		6.59811C10.5345 7.25186 10.0759 7.81062 9.48759 8.20375C8.89924 8.59687 8.20752 8.8067 7.49992 8.8067C6.55105 
		8.8067 5.64104 8.42976 4.97009 7.75881C4.29913 7.08786 3.92219 6.17785 3.92219 5.22898Z" />
	</symbol>

	<symbol id="search" viewBox="0 0 513.28 513.28" xmlns="http://www.w3.org/2000/svg">
		<path d="M495.04,404.48L410.56,320c15.36-30.72,25.6-66.56,25.6-102.4C436.16,97.28,338.88,0,218.56,0S0.96,97.28,0.96,217.6
			s97.28,217.6,217.6,217.6c35.84,0,71.68-10.24,102.4-25.6l84.48,84.48c25.6,25.6,64,25.6,89.6,0
			C518.08,468.48,518.08,430.08,495.04,404.48z M218.56,384c-92.16,0-166.4-74.24-166.4-166.4S126.4,51.2,218.56,51.2
			s166.4,74.24,166.4,166.4S310.72,384,218.56,384z"/>
	</symbol>

	<symbol id="favourites" viewBox="0 0 330.063 330.063" xmlns="http://www.w3.org/2000/svg">
		<path d="M326.551,91.828c-5.609-22-17.583-40.984-34.626-54.899c-16.691-13.627-37.175-21.132-57.676-21.132
			c-26.426,0-50.435,11.752-69.243,33.519c-18.797-21.765-42.798-33.519-69.216-33.519c-20.494,0-40.97,7.505-57.657,21.133
			C21.096,50.845,9.124,69.827,3.515,91.825c-6.046,23.71-7.266,61.521,21.261,107.015c25.939,41.367,70.701,79.584,133.042,113.592
			c2.239,1.221,4.711,1.832,7.184,1.832c2.472,0,4.943-0.61,7.182-1.831c62.359-34.009,107.137-72.227,133.087-113.591
			C333.811,153.349,332.596,115.537,326.551,91.828z M165.003,282.115C19.895,200.327,26.863,121.673,32.584,99.239
			c7.896-30.966,34.479-53.441,63.206-53.441c21.983,0,42.006,13.074,56.38,36.814c2.717,4.488,7.582,7.23,12.828,7.231
			c0.001,0,0.002,0,0.003,0c5.245,0,10.11-2.74,12.828-7.227c14.388-23.743,34.425-36.818,56.419-36.818
			c28.743,0,55.336,22.476,63.231,53.442C303.2,121.674,310.185,200.316,165.003,282.115z"/>
	</symbol>

	<symbol id="geo" viewBox="0 0 512 512" xmlns="http://www.w3.org/2000/svg">
		<g>
			<path d="M256,110.062c-52.412,0-95.053,42.641-95.053,95.053s42.641,95.053,95.053,95.053s95.053-42.641,95.053-95.053
				S308.413,110.062,256,110.062z M256,260.146c-30.344,0-55.031-24.687-55.031-55.031s24.687-55.031,55.031-55.031
				s55.031,24.687,55.031,55.031S286.344,260.146,256,260.146z"/>
		</g>
		<g>
			<path d="M256,0C142.899,0,50.885,92.015,50.885,205.115v5.67c0,57.2,32.794,123.856,97.474,198.113
				c46.888,53.832,93.121,91.368,95.065,92.94L256,512l12.576-10.161c1.945-1.572,48.178-39.108,95.065-92.94
				c64.679-74.258,97.474-140.913,97.474-198.113v-5.67C461.115,92.015,369.101,0,256,0z M421.093,210.786
				c0,96.665-124.551,213.68-165.093,249.202C215.447,424.455,90.907,307.444,90.907,210.786v-5.67
				c0-91.032,74.061-165.093,165.093-165.093s165.093,74.061,165.093,165.093V210.786z"/>
		</g>
	</symbol>

	<symbol id="email" viewBox="0 0 512 512" xmlns="http://www.w3.org/2000/svg">
		<g>
			<path d="M467,76H45C20.238,76,0,96.149,0,121v270c0,24.86,20.251,45,45,45h422c24.762,0,45-20.149,45-45V121
			C512,96.143,491.752,76,467,76z M460.09,106c-14.549,14.597-185.445,186.05-192.466,193.094c-5.864,5.882-17.381,5.886-23.248,0
			L51.91,106H460.09z M30,385.485v-258.97L159.065,256L30,385.485z M51.91,406l128.334-128.752l42.885,43.025
			c17.574,17.631,48.175,17.624,65.743,0l42.885-43.024L460.09,406H51.91z M482,385.485L352.935,256L482,126.515V385.485z"/>
		</g>
	</symbol>

	<symbol id="popup-heart" viewBox="0 0 227 203" fill="none" xmlns="http://www.w3.org/2000/svg">
		<path d="M116.124 31.6456C77.7318 -27.2692 0.0273438 4.82569 0.0273438 69.0036C0.0273438 117.196 106.556 192.583 116.124 202.385C125.758 192.583 226.989 117.196 226.989 69.0036C226.989 5.31225 154.588 -27.2692 116.124 31.6456Z" fill="#FED64C" fill-opacity="0.2889"/>
	</symbol>

	<symbol id="promocode-arrow" viewBox="0 0 31 32" fill="none" xmlns="http://www.w3.org/2000/svg">
		<circle cx="15.5" cy="15.858" r="15.5" fill="#FC8992"/>
		<path d="M15 7.35797L13.585 8.77297L19.17 14.358H7V16.358H19.17L13.585 21.943L15 23.358L23 15.358L15 7.35797Z" fill="white"/>
	</symbol>

	<symbol id="arrow" viewBox="0 0 18 10" fill="none" xmlns="http://www.w3.org/2000/svg">
		<path d="M1 1L9 9L17 1"/>		
	</symbol>

	<symbol id="search3" viewBox="0 0 24 25" xmlns="http://www.w3.org/2000/svg">
<path d="M23.1723 21.9165L18.7806 17.5378C20.1976 15.7326 20.9664 13.5034 20.9635 11.2086C20.9635 9.16484 20.3575 7.167 
19.2221 5.46769C18.0866 3.76838 16.4728 2.44393 14.5846 1.66183C12.6964 0.879721 10.6188 0.675087 8.61428 1.0738C6.60981 
1.47251 4.76859 2.45667 3.32344 3.90181C1.8783 5.34695 0.894146 7.18818 0.495432 9.19265C0.0967178 11.1971 0.301352 
13.2748 1.08346 15.163C1.86556 17.0511 3.19001 18.665 4.88932 19.8004C6.58863 20.9359 8.58647 21.5419 10.6302 21.5419C12.9251 
21.5448 15.1542 20.7759 16.9594 19.359L21.3381 23.7507C21.4582 23.8717 21.6011 23.9678 21.7585 24.0334C21.9159 24.099 22.0847 
24.1327 22.2552 24.1327C22.4257 24.1327 22.5946 24.099 22.752 24.0334C22.9094 23.9678 23.0522 23.8717 23.1723 23.7507C23.2934 
23.6306 23.3895 23.4877 23.455 23.3303C23.5206 23.1729 23.5544 23.0041 23.5544 22.8336C23.5544 22.6631 23.5206 22.4942 23.455 
22.3368C23.3895 22.1794 23.2934 22.0366 23.1723 21.9165ZM2.88021 11.2086C2.88021 9.67578 3.33474 8.17739 4.18632 6.90291C5.0379 
5.62843 6.24829 4.6351 7.66442 4.04852C9.08054 3.46194 10.6388 3.30846 12.1422 3.6075C13.6455 3.90653 15.0264 4.64465 16.1103 
5.72851C17.1941 6.81236 17.9323 8.19328 18.2313 9.69663C18.5303 11.2 18.3769 12.7583 17.7903 14.1744C17.2037 15.5905 16.2104 
16.8009 14.9359 17.6525C13.6614 18.5041 12.163 18.9586 10.6302 18.9586C8.57479 18.9586 6.60354 18.1421 5.15014 16.6887C3.69673 
15.2353 2.88021 13.264 2.88021 11.2086Z" />
	</symbol> 

	<symbol id="basket3" viewBox="0 0 29 27" fill="none" xmlns="http://www.w3.org/2000/svg">
<path d="M28.1634 6.20809C27.9114 5.77149 27.5506 5.40766 27.1161 5.15207C26.6816 4.89648 26.1882 4.75787 25.6842 4.74976H7.01755L6.17171 1.45392C6.08625 1.13577 5.89559 0.855925 5.63078 0.659966C5.36597 0.464006 5.04262 0.363479 4.71338 0.374757H1.79671C1.40994 0.374757 1.03901 0.528402 0.765515 0.801893C0.492024 1.07538 0.338379 1.44632 0.338379 1.83309C0.338379 2.21986 0.492024 2.5908 0.765515 2.86429C1.03901 3.13778 1.40994 3.29142 1.79671 3.29142H3.60505L7.63004 18.2539C7.7155 18.5721 7.90616 18.8519 8.17097 19.0479C8.43578 19.2438 8.75914 19.3444 9.08838 19.3331H22.2134C22.4827 19.3323 22.7465 19.2569 22.9756 19.1153C23.2047 18.9738 23.3901 18.7715 23.5113 18.531L28.2946 8.96434C28.502 8.52978 28.5985 8.05065 28.5756 7.56971C28.5527 7.08877 28.4111 6.62098 28.1634 6.20809ZM21.3092 16.4164H10.1967L7.81963 7.66642H25.6842L21.3092 16.4164Z" fill="white"/>
<path d="M8.35938 26.6243C9.5675 26.6243 10.5469 25.6449 10.5469 24.4368C10.5469 23.2286 9.5675 22.2493 8.35938 22.2493C7.15125 22.2493 6.17188 23.2286 6.17188 24.4368C6.17188 25.6449 7.15125 26.6243 8.35938 26.6243Z" fill="white"/>
<path d="M22.9424 26.6243C24.1505 26.6243 25.1299 25.6449 25.1299 24.4368C25.1299 23.2286 24.1505 22.2493 22.9424 22.2493C21.7343 22.2493 20.7549 23.2286 20.7549 24.4368C20.7549 25.6449 21.7343 26.6243 22.9424 26.6243Z" fill="white"/>
	</symbol>

	<symbol id="fav2" viewBox="0 0 31 27" fill="none" xmlns="http://www.w3.org/2000/svg">
<path d="M15.6606 26.0689C15.4633 26.0701 15.2676 26.0315 15.0849 25.9554C14.9021 25.8793 14.7359 25.7672 14.5958 25.6254L2.94235 13.7263C1.48058 12.22 0.660645 10.1864 0.660645 8.06728C0.660645 5.94812 1.48058 3.91455 2.94235 2.40831C4.41554 0.910229 6.41113 0.0689697 8.4916 0.0689697C10.5721 0.0689697 12.5677 0.910229 14.0409 2.40831L15.6606 4.06012L17.2804 2.40831C18.7536 0.910229 20.7492 0.0689697 22.8297 0.0689697C24.9102 0.0689697 26.9057 0.910229 28.3789 2.40831C29.8407 3.91455 30.6606 5.94812 30.6606 8.06728C30.6606 10.1864 29.8407 12.22 28.3789 13.7263L16.7255 25.6254C16.5854 25.7672 16.4192 25.8793 16.2364 25.9554C16.0537 26.0315 15.858 26.0701 15.6606 26.0689ZM8.4916 3.12715C7.8567 3.12422 7.22754 3.24979 6.64056 3.49657C6.05359 3.74335 5.52046 4.10645 5.07206 4.56484C4.16627 5.4934 3.6578 6.74989 3.6578 8.05964C3.6578 9.36939 4.16627 10.6259 5.07206 11.5544L15.6606 22.3677L26.2492 11.5544C27.155 10.6259 27.6635 9.36939 27.6635 8.05964C27.6635 6.74989 27.155 5.4934 26.2492 4.56484C25.3249 3.67425 24.1014 3.17808 22.8297 3.17808C21.558 3.17808 20.3345 3.67425 19.4101 4.56484L16.7255 7.31785C16.5861 7.46121 16.4202 7.57499 16.2374 7.65264C16.0547 7.73029 15.8586 7.77026 15.6606 7.77026C15.4627 7.77026 15.2666 7.73029 15.0839 7.65264C14.9011 7.57499 14.7352 7.46121 14.5958 7.31785L11.9111 4.56484C11.4627 4.10645 10.9296 3.74335 10.3426 3.49657C9.75567 3.24979 9.1265 3.12422 8.4916 3.12715Z" fill="white"/>
	</symbol>

	<symbol id="lk3" viewBox="0 0 22 30" fill="none" xmlns="http://www.w3.org/2000/svg">
<path d="M11.0091 13.4836C12.2513 13.4836 13.4656 13.1153 14.4985 12.4251C15.5313 11.735 16.3363 10.7541 16.8117 9.60648C17.287 8.45885 17.4114 7.19602 17.1691 5.9777C16.9267 4.75938 16.3286 3.64028 15.4502 2.76192C14.5718 1.88356 13.4527 1.28539 12.2344 1.04305C11.0161 0.800707 9.75328 0.925085 8.60565 1.40045C7.45801 1.87582 6.47712 2.68082 5.78699 3.71366C5.09687 4.7465 4.72852 5.9608 4.72852 7.20299C4.72852 8.86871 5.39022 10.4662 6.56807 11.6441C7.74591 12.8219 9.34341 13.4836 11.0091 13.4836ZM11.0091 4.06268C11.6302 4.06268 12.2374 4.24685 12.7538 4.59191C13.2702 4.93698 13.6727 5.42743 13.9104 6.00124C14.1481 6.57506 14.2103 7.20647 14.0891 7.81563C13.9679 8.42479 13.6689 8.98434 13.2297 9.42352C12.7905 9.8627 12.2309 10.1618 11.6218 10.283C11.0126 10.4041 10.3812 10.3419 9.80739 10.1043C9.23358 9.86658 8.74313 9.46407 8.39806 8.94765C8.053 8.43123 7.86883 7.82408 7.86883 7.20299C7.86883 6.37013 8.19968 5.57137 8.7886 4.98245C9.37753 4.39353 10.1763 4.06268 11.0091 4.06268Z" fill="white"/>
<path d="M11.0092 16.6237C8.09414 16.6237 5.29851 17.7816 3.23728 19.8429C1.17605 21.9041 0.0180664 24.6997 0.0180664 27.6147C0.0180664 28.0312 0.183493 28.4306 0.477955 28.725C0.772416 29.0195 1.17179 29.1849 1.58822 29.1849C2.00465 29.1849 2.40403 29.0195 2.69849 28.725C2.99295 28.4306 3.15838 28.0312 3.15838 27.6147C3.15838 25.5326 3.98551 23.5357 5.45782 22.0634C6.93012 20.5911 8.927 19.764 11.0092 19.764C13.0913 19.764 15.0882 20.5911 16.5605 22.0634C18.0328 23.5357 18.8599 25.5326 18.8599 27.6147C18.8599 28.0312 19.0254 28.4306 19.3198 28.725C19.6143 29.0195 20.0137 29.1849 20.4301 29.1849C20.8465 29.1849 21.2459 29.0195 21.5404 28.725C21.8348 28.4306 22.0002 28.0312 22.0002 27.6147C22.0002 24.6997 20.8423 21.9041 18.781 19.8429C16.7198 17.7816 13.9242 16.6237 11.0092 16.6237Z" fill="white"/>
	</symbol>

</svg>


